<?xml version="1.0" encoding="UTF-8"?>
<svg width="512" height="512" viewBox="0 0 512 512" fill="none" xmlns="http://www.w3.org/2000/svg">
  <!-- Background Circle -->
  <circle cx="256" cy="256" r="256" fill="#2563EB"/>
  
  <!-- Letter B -->
  <path d="M160 128h96c44.2 0 80 35.8 80 80 0 35.3-22.9 65.2-54.7 75.5C297.3 297.8 320 327.7 320 363c0 44.2-35.8 80-80 80h-80V128zm32 32v96h64c26.5 0 48-21.5 48-48s-21.5-48-48-48h-64zm0 128v96h64c26.5 0 48-21.5 48-48s-21.5-48-48-48h-64z" fill="white"/>
  
  <!-- Circuit Lines -->
  <path d="M384 192h32M384 320h32M384 256h32" stroke="white" stroke-width="16" stroke-linecap="round"/>
  <path d="M96 192h32M96 320h32M96 256h32" stroke="white" stroke-width="16" stroke-linecap="round"/>
</svg> 